<?xml version="1.0" encoding="utf-8"?>
<!-- Generator: Adobe Illustrator 19.1.0, SVG Export Plug-In . SVG Version: 6.00 Build 0)  -->
<svg version="1.1" id="Layer_1" xmlns="http://www.w3.org/2000/svg" xmlns:xlink="http://www.w3.org/1999/xlink" x="0px" y="0px"
	 viewBox="452.8 371.7 166.3 53.6" style="enable-background:new 452.8 371.7 166.3 53.6;" xml:space="preserve">
<style type="text/css">
	.st0{fill:#333333;}
	.st1{fill:#333333;}
	.st2{fill:#333333;}
</style>
<g>
	<path class="st0" d="M452.8,421.2l3.1-3.8c2.2,1.8,4.5,2.9,7.2,2.9c2.2,0,3.5-0.9,3.5-2.3v-0.1c0-1.3-0.8-2-4.9-3.1
		c-4.9-1.2-8-2.6-8-7.4v-0.1c0-4.4,3.5-7.3,8.5-7.3c3.5,0,6.5,1.1,9,3.1l-2.8,4c-2.1-1.5-4.3-2.4-6.3-2.4s-3.1,0.9-3.1,2.1v0.1
		c0,1.6,1,2.1,5.2,3.2c4.9,1.3,7.7,3,7.7,7.3v0.1c0,4.8-3.7,7.5-8.9,7.5C459.4,425.1,455.7,423.8,452.8,421.2"/>
	<path class="st0" d="M473.5,419.5v-8.8h-2.2v-4.5h2.2v-4.7h5.3v4.7h4.4v4.5h-4.4v7.9c0,1.2,0.5,1.8,1.7,1.8c1,0,1.8-0.2,2.6-0.7
		v4.2c-1.1,0.7-2.4,1.1-4.2,1.1C475.7,425,473.5,423.8,473.5,419.5"/>
	<path class="st0" d="M495.9,418.2v-0.9c-0.9-0.4-2.1-0.7-3.4-0.7c-2.2,0-3.6,0.9-3.6,2.6v0.1c0,1.4,1.2,2.2,2.9,2.2
		C494.3,421.4,495.9,420.1,495.9,418.2 M483.9,419.4L483.9,419.4c0-4.1,3.1-6,7.5-6c1.9,0,3.2,0.3,4.5,0.8v-0.3c0-2.2-1.3-3.4-4-3.4
		c-2,0-3.4,0.4-5.1,1l-1.3-4c2-0.9,4-1.5,7.2-1.5c2.9,0,4.9,0.8,6.3,2.1c1.4,1.4,2,3.4,2,5.9v10.7h-5.1v-2c-1.3,1.4-3,2.4-5.6,2.4
		C486.7,425.1,483.9,423.1,483.9,419.4"/>
	<path class="st0" d="M501.8,415.6L501.8,415.6c0-5.4,4-9.7,9.7-9.7c3.5,0,5.7,1.2,7.4,3.1l-3.2,3.5c-1.2-1.2-2.4-2-4.2-2
		c-2.6,0-4.5,2.3-4.5,5.1v0.1c0,2.8,1.8,5.1,4.7,5.1c1.8,0,3-0.8,4.3-2l3.1,3.1c-1.8,2-3.9,3.4-7.6,3.4
		C505.8,425.1,501.8,420.8,501.8,415.6"/>
	<polygon class="st0" points="519.9,399.5 525.1,399.5 525.1,412.9 531.3,406.2 537.6,406.2 530.5,413.5 537.8,424.7 531.7,424.7
		527,417.1 525.1,419.1 525.1,424.7 519.9,424.7 	"/>
	<rect x="538.7" y="399.5" class="st0" width="5.3" height="25.2"/>
	<path class="st0" d="M557,418.2v-0.9c-0.9-0.4-2.1-0.7-3.4-0.7c-2.2,0-3.6,0.9-3.6,2.6v0.1c0,1.4,1.2,2.2,2.9,2.2
		C555.4,421.4,557,420.1,557,418.2 M545,419.4L545,419.4c0-4.1,3.1-6,7.5-6c1.9,0,3.2,0.3,4.5,0.8v-0.3c0-2.2-1.3-3.4-4-3.4
		c-2,0-3.4,0.4-5.1,1l-1.3-4c2-0.9,4-1.5,7.2-1.5c2.9,0,4.9,0.8,6.3,2.1c1.4,1.4,2,3.4,2,5.9v10.7H557v-2c-1.3,1.4-3,2.4-5.6,2.4
		C547.8,425.1,545,423.1,545,419.4"/>
	<path class="st1" d="M601.9,399.6c1.9,1,3.4,0.3,3.4-1.5v-3.9l13.8,18.6l-13.8,4.7v-2.4c0-2.7-1.7-5-3.9-6.1l-9.4-4.9
		c-2.1-1.1-3-3.7-1.9-5.8c1.1-2.1,3.7-3,5.8-1.9L601.9,399.6z"/>
	<path class="st1" d="M584.4,419.4c-1.9-1-3.4-0.3-3.4,1.5v3.9l-13.8-18.6l13.8-4.7v2.4c0,2.7,1.7,5,3.9,6.1l9.4,4.9
		c2.1,1.1,3,3.7,1.9,5.8c-1.1,2.1-3.7,3-5.8,1.9L584.4,419.4z"/>
	<g>
		<path class="st2" d="M454.6,372.2h4.7c2.8,0,4.7,1.5,4.7,4l0,0c0,2.7-2.3,4.1-5,4.1h-3v4.4h-1.4V372.2z M459.1,379.1
			c2.1,0,3.5-1.1,3.5-2.8l0,0c0-1.8-1.4-2.7-3.4-2.7H456v5.5H459.1z"/>
		<path class="st2" d="M465.8,380.2L465.8,380.2c0-2.7,2.1-4.9,4.9-4.9s4.8,2.2,4.8,4.8l0,0c0,2.6-2.1,4.9-4.9,4.9
			C467.8,385.1,465.8,382.9,465.8,380.2z M474.1,380.2L474.1,380.2c0-2-1.5-3.7-3.5-3.7s-3.4,1.6-3.4,3.6l0,0c0,2,1.5,3.6,3.4,3.6
			C472.7,383.8,474.1,382.2,474.1,380.2z"/>
		<path class="st2" d="M476.8,375.5h1.5l2.4,7.5l2.5-7.5h1.2l2.5,7.5l2.4-7.5h1.4l-3.3,9.4h-1.2l-2.5-7.3l-2.5,7.3H480L476.8,375.5z
			"/>
		<path class="st2" d="M492.2,380.2L492.2,380.2c0-2.7,1.9-4.9,4.5-4.9c2.8,0,4.3,2.2,4.3,4.9c0,0.2,0,0.3,0,0.5h-7.4
			c0.2,2,1.6,3.2,3.3,3.2c1.3,0,2.2-0.5,2.9-1.3l0.9,0.8c-0.9,1-2.1,1.7-3.8,1.7C494.3,385.1,492.2,383.1,492.2,380.2z M499.6,379.7
			c-0.1-1.7-1.1-3.2-3-3.2c-1.6,0-2.8,1.4-3,3.2H499.6z"/>
		<path class="st2" d="M503.5,375.5h1.4v2.4c0.7-1.5,2-2.7,3.8-2.6v1.5h-0.1c-2,0-3.7,1.5-3.7,4.3v3.7h-1.4L503.5,375.5L503.5,375.5
			z"/>
		<path class="st2" d="M509.9,380.2L509.9,380.2c0-2.7,1.9-4.9,4.5-4.9c2.8,0,4.3,2.2,4.3,4.9c0,0.2,0,0.3,0,0.5h-7.4
			c0.2,2,1.6,3.2,3.3,3.2c1.3,0,2.2-0.5,2.9-1.3l0.9,0.8c-0.9,1-2.1,1.7-3.8,1.7C512,385.1,509.9,383.1,509.9,380.2z M517.3,379.7
			c-0.1-1.7-1.1-3.2-3-3.2c-1.6,0-2.8,1.4-3,3.2H517.3z"/>
		<path class="st2" d="M520.7,380.2L520.7,380.2c0-3.1,2.2-4.9,4.4-4.9c1.7,0,2.8,0.9,3.6,2v-5.6h1.4v13.1h-1.4v-1.9
			c-0.8,1.1-1.9,2.1-3.6,2.1C522.9,385,520.7,383.3,520.7,380.2z M528.8,380.2L528.8,380.2c0-2.2-1.6-3.6-3.4-3.6
			c-1.8,0-3.3,1.3-3.3,3.6l0,0c0,2.2,1.5,3.6,3.3,3.6C527.1,383.8,528.8,382.3,528.8,380.2z"/>
		<path class="st2" d="M540.2,383.1v1.8h-1.4v-13.2h1.4v5.7c0.8-1.1,1.9-2.1,3.6-2.1c2.2,0,4.4,1.8,4.4,4.8l0,0c0,3-2.2,4.8-4.4,4.8
			C542,385,540.9,384.1,540.2,383.1z M546.8,380.2L546.8,380.2c0-2.2-1.5-3.6-3.3-3.6c-1.7,0-3.4,1.5-3.4,3.6l0,0
			c0,2.2,1.6,3.6,3.4,3.6S546.8,382.5,546.8,380.2z"/>
		<path class="st2" d="M557.3,375.5h1.5l-3.9,9.6c-0.8,1.9-1.7,2.6-3.1,2.6c-0.8,0-1.3-0.2-2-0.5l0.5-1.1c0.5,0.2,0.9,0.3,1.5,0.3
			c0.8,0,1.4-0.4,1.9-1.7l-4.2-9.3h1.5l3.4,7.8L557.3,375.5z"/>
	</g>
</g>
</svg>
